<svg width="150" height="176" viewBox="0 0 150 176" fill="none" xmlns="http://www.w3.org/2000/svg">
<g opacity="0.5">
<g clip-path="url(#clip0_318_13131)">
<g clip-path="url(#clip1_318_13131)">
<path d="M118.797 112.176L112.244 113.81C111.487 113.998 110.679 113.855 110.027 113.41L106.62 111.075C106.107 110.727 105.485 110.603 104.882 110.753C104.279 110.903 103.788 111.305 103.498 111.853L101.854 115.005C101.321 116.024 100.362 116.789 99.2491 117.066L63.3752 126.011C63.0757 129.156 63.178 132.397 63.713 135.662L97.5776 127.218C98.1804 127.068 98.6752 126.682 98.9846 126.145L101.317 122.067C101.599 121.553 102.098 121.182 102.654 121.044L102.778 121.013C103.381 120.863 104.003 120.987 104.516 121.335L107.922 123.67C108.575 124.115 109.382 124.258 110.14 124.07L137.775 117.179C136.719 114.06 135.283 111.135 133.539 108.483L118.797 112.176Z" fill="white"/>
<path d="M89.017 149.841C89.6198 149.69 90.1146 149.304 90.424 148.768L92.7562 144.689C93.054 144.172 93.5371 143.805 94.109 143.662L94.2327 143.632C94.8355 143.481 95.4729 143.601 95.9672 143.938L99.3733 146.273C100.026 146.718 100.833 146.862 101.591 146.673L139.057 137.331C139.739 134.075 139.984 130.714 139.789 127.298L103.823 136.266C103.065 136.455 102.258 136.311 101.605 135.867L98.2067 133.562C97.6931 133.214 97.075 133.105 96.4722 133.256C95.8694 133.406 95.3631 133.811 95.0846 134.34L93.4406 137.492C92.9107 138.527 91.9482 139.276 90.8199 139.557L66.7236 145.565C68.1551 148.673 69.9498 151.525 72.0808 154.08L89.017 149.841Z" fill="white"/>
<path d="M105.986 104.715C106.589 104.565 107.084 104.179 107.393 103.642L109.725 99.5638C110.008 99.0501 110.506 98.6795 111.078 98.5369L111.202 98.5061C111.805 98.3558 112.427 98.4798 112.94 98.8278L116.35 101.179C117.003 101.624 117.81 101.767 118.568 101.578L125.693 99.8017C116.657 92.467 104.416 89.33 92.2671 92.3591C80.1185 95.3883 70.7675 103.909 66.2328 114.627L105.986 104.715Z" fill="white"/>
<path d="M103.582 155.978L93.8446 158.406C93.0872 158.595 92.2798 158.452 91.6272 158.007L88.2211 155.671C87.7074 155.323 87.0894 155.215 86.4866 155.365C85.8838 155.515 85.3774 155.921 85.0989 156.45L83.455 159.601C82.925 160.636 81.9626 161.385 80.8343 161.667L80.6797 161.705C89.2763 167.278 100.073 169.429 110.815 166.75C121.558 164.072 130.065 157.107 135.055 148.147L103.582 155.978Z" fill="white"/>
</g>
</g>
<rect y="13.4883" width="117.74" height="41.0165" rx="20.5082" transform="rotate(-6.5783 0 13.4883)" fill="#908AD8"/>
<g opacity="0.8">
<path d="M28.6543 35.9516L25.7757 39.7487L21.9785 36.8701" stroke="white" stroke-width="1.68467" stroke-linecap="round" stroke-linejoin="round"/>
<path d="M23.4785 23.0591L25.7749 39.7486" stroke="white" stroke-width="1.68467" stroke-linecap="round" stroke-linejoin="round"/>
<path d="M30.6136 25.479L33.4922 21.6818L37.2894 24.5605" stroke="white" stroke-width="1.68467" stroke-linecap="round" stroke-linejoin="round"/>
<path d="M35.7885 38.3711L33.4922 21.6816" stroke="white" stroke-width="1.68467" stroke-linecap="round" stroke-linejoin="round"/>
</g>
<path opacity="0.8" d="M55.6896 34.82L54.2785 22.8697L50.0753 23.366L49.7834 20.8935L60.9095 19.5797L61.2015 22.0522L56.9983 22.5485L58.4093 34.4988L55.6896 34.82ZM63.1386 33.9404L61.9319 23.7208L64.4868 23.4192L64.623 24.573L64.9939 24.5292C65.0963 24.0993 65.3079 23.7679 65.6286 23.535C65.963 23.3006 66.3637 23.1557 66.8307 23.1006L68.067 22.9546L68.3395 25.2623L67.062 25.4131C66.4027 25.491 65.8812 25.7336 65.4976 26.141C65.1123 26.5347 64.9626 27.0955 65.0486 27.8235L65.7347 33.6339L63.1386 33.9404ZM74.2734 32.9181C73.5453 33.0041 72.8783 32.9575 72.2722 32.7784C71.6645 32.5855 71.1605 32.269 70.7603 31.8287C70.3723 31.3732 70.1369 30.7951 70.0542 30.0946C69.9715 29.3941 70.0674 28.7908 70.3419 28.2849C70.6285 27.7636 71.0534 27.3513 71.6164 27.048C72.1916 26.7294 72.8638 26.5247 73.633 26.4339L76.4352 26.103L76.3671 25.5261C76.3103 25.0453 76.113 24.6717 75.7751 24.4052C75.4356 24.1249 74.9362 24.0237 74.2769 24.1016C73.6313 24.1778 73.1684 24.3857 72.8881 24.7252C72.6062 25.0509 72.4448 25.453 72.4038 25.9314L69.9189 25.41C70.0221 24.8686 70.2271 24.3639 70.5339 23.8959C70.8529 23.4126 71.2992 23.0047 71.8727 22.6724C72.4584 22.3247 73.1908 22.0989 74.0699 21.9951C75.416 21.8362 76.5203 22.047 77.3827 22.6276C78.2452 23.2082 78.7518 24.1372 78.9026 25.4147L79.3527 29.2264C79.4014 29.6385 79.618 29.8218 80.0026 29.7764L80.8268 29.6791L81.0798 31.8219L79.3491 32.0263C78.8408 32.0863 78.4073 32.0121 78.0484 31.8038C77.6896 31.5955 77.4858 31.2853 77.4372 30.8732L77.4347 30.8526L77.0433 30.8988C77.0078 31.0702 76.9101 31.3045 76.7502 31.602C76.5888 31.8856 76.3141 32.1548 75.9264 32.4095C75.5386 32.6642 74.9876 32.8338 74.2734 32.9181ZM74.4785 30.763C75.2065 30.677 75.7736 30.4081 76.1799 29.9562C76.5982 29.489 76.7677 28.9189 76.6882 28.2458L76.6639 28.0398L74.0472 28.3487C73.5664 28.4055 73.2008 28.5531 72.9504 28.7916C72.7001 29.0301 72.5968 29.3348 72.6406 29.7056C72.6843 30.0765 72.8643 30.3617 73.1803 30.5611C73.4963 30.7606 73.929 30.8278 74.4785 30.763ZM86.9316 31.4234C86.1212 31.5191 85.3353 31.41 84.574 31.096C83.8248 30.7666 83.1911 30.2356 82.6728 29.5029C82.1545 28.7702 81.8297 27.8476 81.6983 26.735L81.6594 26.4053C81.528 25.2927 81.629 24.3198 81.9624 23.4866C82.2958 22.6533 82.7892 21.9962 83.4427 21.5151C84.0946 21.0203 84.8326 20.7243 85.6567 20.6269C86.2749 20.554 86.7989 20.5687 87.2288 20.6711C87.6708 20.7582 88.0353 20.8962 88.3223 21.0852C88.6092 21.2741 88.8359 21.4841 89.0025 21.7152L89.3734 21.6714L88.7384 16.2937L91.3345 15.9872L93.0375 30.41L90.4826 30.7116L90.3366 29.4754L89.9658 29.5192C89.7777 29.9314 89.455 30.3246 88.9978 30.6989C88.5544 31.0716 87.8656 31.3131 86.9316 31.4234ZM87.4469 29.0645C88.2436 28.9705 88.8798 28.6377 89.3555 28.0662C89.8296 27.481 90.0082 26.6939 89.8914 25.7049L89.8671 25.4988C89.7503 24.5099 89.3941 23.7929 88.7984 23.3479C88.2148 22.8876 87.5177 22.7052 86.7073 22.8009C85.9106 22.895 85.2753 23.2347 84.8012 23.8199C84.3255 24.3914 84.146 25.1716 84.2628 26.1606L84.2871 26.3666C84.4039 27.3556 84.761 28.0795 85.3583 28.5382C85.954 28.9832 86.6502 29.1586 87.4469 29.0645ZM100.606 29.8087C99.5899 29.9287 98.665 29.8221 97.8318 29.4887C97.0107 29.14 96.3341 28.6001 95.8021 27.869C95.2822 27.1226 94.959 26.2137 94.8325 25.1423L94.8033 24.8951C94.6768 23.8237 94.7802 22.8714 95.1136 22.0381C95.4454 21.1912 95.9707 20.5094 96.6896 19.9927C97.4069 19.4623 98.2738 19.1371 99.2903 19.0171C100.293 18.8987 101.192 19.0224 101.987 19.3881C102.781 19.74 103.431 20.29 103.937 21.0381C104.441 21.7724 104.755 22.6615 104.879 23.7054L104.983 24.5914L97.5452 25.4696C97.6554 26.1669 97.9837 26.7062 98.5301 27.0873C99.0765 27.4685 99.7069 27.6169 100.421 27.5326C101.149 27.4466 101.666 27.2254 101.972 26.8689C102.278 26.5124 102.498 26.1313 102.631 25.7256L104.885 26.5877C104.735 26.9675 104.499 27.3922 104.179 27.8618C103.87 28.3161 103.432 28.73 102.863 29.1036C102.293 29.4634 101.54 29.6984 100.606 29.8087ZM97.3372 23.5304L102.117 22.966C101.993 22.3818 101.696 21.9363 101.228 21.6295C100.774 21.321 100.21 21.2065 99.5373 21.286C98.8368 21.3687 98.3015 21.613 97.9316 22.0187C97.5617 22.4245 97.3636 22.9284 97.3372 23.5304Z" fill="white"/>
</g>
<defs>
<clipPath id="clip0_318_13131">
<rect x="55.0723" y="101.633" width="78.7216" height="76.6526" rx="5.99784" transform="rotate(-14.0006 55.0723 101.633)" fill="white"/>
</clipPath>
<clipPath id="clip1_318_13131">
<rect width="76.3499" height="76.6526" fill="white" transform="translate(55.2188 101.597) rotate(-14.0006)"/>
</clipPath>
</defs>
</svg>
