<svg width="261" height="186" viewBox="0 0 261 186" fill="none" xmlns="http://www.w3.org/2000/svg">
<g opacity="0.4">
<rect x="140.135" y="145.803" width="113.678" height="40.4313" rx="20.2157" transform="rotate(-13.1845 140.135 145.803)" fill="#908AD8"/>
<path d="M162.91 154.303C162.91 154.303 164.799 151.278 168.894 150.331C174.628 149.006 179.229 153.982 179.229 153.982" stroke="white" stroke-width="1.68131" stroke-linecap="round" stroke-linejoin="round"/>
<path d="M179.044 164.379C179.044 164.379 177.155 167.404 173.059 168.35C167.326 169.675 162.725 164.699 162.725 164.699" stroke="white" stroke-width="1.68131" stroke-linecap="round" stroke-linejoin="round"/>
<path d="M174.315 155.117L179.229 153.982L178.093 149.067" stroke="white" stroke-width="1.68131" stroke-linecap="round" stroke-linejoin="round"/>
<path d="M167.639 163.563L162.725 164.699L163.86 169.614" stroke="white" stroke-width="1.68131" stroke-linecap="round" stroke-linejoin="round"/>
<path opacity="0.8" d="M198.308 160.482C197.006 160.791 195.871 160.762 194.904 160.396C193.938 160.029 193.243 159.342 192.82 158.336L195.014 157.178C195.219 157.625 195.461 157.958 195.74 158.176C196.032 158.39 196.353 158.52 196.704 158.564C197.066 158.592 197.441 158.56 197.831 158.467C198.422 158.327 198.834 158.123 199.069 157.855C199.3 157.573 199.379 157.278 199.305 156.969C199.232 156.66 199.042 156.456 198.735 156.359C198.425 156.248 197.962 156.209 197.345 156.242L196.757 156.275C196.027 156.306 195.346 156.276 194.714 156.185C194.08 156.08 193.538 155.861 193.09 155.527C192.642 155.194 192.34 154.698 192.184 154.04C191.948 153.046 192.131 152.201 192.732 151.505C193.33 150.796 194.22 150.301 195.402 150.021C196.517 149.756 197.503 149.785 198.359 150.107C199.216 150.429 199.854 150.965 200.273 151.717L198.088 153.001C197.859 152.516 197.552 152.206 197.165 152.071C196.792 151.933 196.363 151.921 195.88 152.035C195.396 152.15 195.048 152.325 194.834 152.56C194.617 152.782 194.543 153.04 194.613 153.336C194.69 153.658 194.882 153.868 195.188 153.966C195.492 154.05 195.882 154.078 196.358 154.05L196.946 154.017C197.73 153.973 198.451 153.993 199.109 154.078C199.778 154.147 200.337 154.348 200.785 154.681C201.243 154.998 201.555 155.506 201.72 156.204C201.969 157.252 201.779 158.155 201.15 158.915C200.532 159.657 199.584 160.18 198.308 160.482ZM205.462 158.488L201.683 148.829L204.201 148.232L207.051 156.302L207.414 156.216L206.739 147.63L210.809 146.665L214.062 154.64L214.425 154.554L213.348 146.063L215.866 145.466L216.825 155.793L212.615 156.792L209.362 148.817L208.999 148.903L209.673 157.489L205.462 158.488ZM223.625 154.479C222.913 154.647 222.246 154.678 221.625 154.57C221 154.448 220.464 154.192 220.017 153.802C219.58 153.395 219.28 152.849 219.118 152.164C218.956 151.479 218.981 150.87 219.195 150.337C219.42 149.787 219.794 149.33 220.317 148.964C220.851 148.582 221.494 148.302 222.246 148.124L224.986 147.474L224.852 146.91C224.74 146.44 224.502 146.092 224.136 145.867C223.768 145.628 223.261 145.585 222.616 145.738C221.985 145.887 221.55 146.147 221.311 146.515C221.069 146.871 220.955 147.288 220.969 147.767L218.446 147.535C218.486 146.987 218.631 146.463 218.882 145.964C219.143 145.448 219.538 144.992 220.069 144.597C220.609 144.185 221.31 143.877 222.169 143.673C223.485 143.361 224.604 143.443 225.526 143.92C226.448 144.396 227.057 145.259 227.353 146.508L228.237 150.236C228.332 150.639 228.568 150.795 228.944 150.706L229.75 150.515L230.247 152.61L228.555 153.012C228.058 153.13 227.619 153.106 227.24 152.941C226.86 152.775 226.622 152.491 226.527 152.088L226.522 152.068L226.139 152.159C226.124 152.333 226.054 152.576 225.929 152.889C225.802 153.189 225.561 153.488 225.205 153.785C224.85 154.082 224.323 154.313 223.625 154.479ZM223.581 152.319C224.293 152.15 224.824 151.818 225.175 151.323C225.536 150.812 225.639 150.227 225.483 149.569L225.435 149.368L222.876 149.975C222.406 150.086 222.061 150.274 221.84 150.54C221.619 150.805 221.551 151.119 221.637 151.481C221.723 151.844 221.935 152.106 222.271 152.267C222.607 152.429 223.044 152.446 223.581 152.319ZM233.058 156.2L229.733 142.177L232.231 141.585L232.518 142.794L232.881 142.708C233.017 142.264 233.291 141.837 233.705 141.427C234.115 141.003 234.77 140.685 235.67 140.472C236.476 140.281 237.269 140.305 238.05 140.546C238.827 140.773 239.515 141.22 240.113 141.887C240.711 142.553 241.139 143.431 241.397 144.519L241.473 144.841C241.731 145.929 241.743 146.905 241.508 147.77C241.273 148.634 240.861 149.349 240.271 149.914C239.679 150.466 238.979 150.838 238.174 151.029C237.569 151.172 237.041 151.219 236.59 151.17C236.155 151.131 235.785 151.035 235.478 150.88C235.183 150.709 234.934 150.527 234.732 150.334L234.369 150.42L235.597 155.598L233.058 156.2ZM236.882 148.994C237.675 148.806 238.267 148.403 238.66 147.785C239.063 147.151 239.149 146.35 238.92 145.383L238.872 145.181C238.643 144.214 238.208 143.544 237.566 143.171C236.921 142.785 236.209 142.685 235.43 142.869C234.651 143.054 234.06 143.464 233.657 144.098C233.251 144.72 233.163 145.514 233.392 146.481L233.44 146.682C233.67 147.649 234.107 148.326 234.751 148.712C235.393 149.085 236.103 149.179 236.882 148.994Z" fill="white"/>
</g>
<g opacity="0.8">
<g opacity="0.8">
<g clip-path="url(#clip0_318_13147)">
<g clip-path="url(#clip1_318_13147)">
<path d="M49.1338 97.7081L44.2452 96.9614C43.6802 96.875 43.1753 96.5501 42.86 96.0654L41.2186 93.5257C40.9699 93.1456 40.5848 92.8861 40.1351 92.8175C39.6854 92.7488 39.2404 92.8814 38.8896 93.1699L36.889 94.8347C36.2405 95.3728 35.3771 95.6184 34.5469 95.4916L7.78647 91.4037C6.69615 93.4435 5.84987 95.6622 5.28928 98.0189L30.5509 101.878C31.0005 101.947 31.4438 101.825 31.8044 101.55L34.5316 99.4537C34.8674 99.1864 35.3089 99.0769 35.724 99.1403L35.8162 99.1544C36.2659 99.2231 36.651 99.4825 36.8997 99.8626L38.5411 102.402C38.8564 102.887 39.3613 103.212 39.9263 103.298L60.5414 106.447C60.7082 104.042 60.5647 101.661 60.1349 99.3769L49.1338 97.7081Z" fill="white"/>
<path d="M18.3798 114.744C18.8295 114.812 19.2727 114.691 19.6333 114.416L22.3605 112.319C22.7079 112.054 23.1378 111.943 23.5644 112.008L23.6567 112.022C24.1063 112.09 24.503 112.352 24.7419 112.719L26.3833 115.258C26.6986 115.743 27.2035 116.068 27.7685 116.154L55.7165 120.424C57.0968 118.416 58.2118 116.215 59.0446 113.853L32.215 109.754C31.6501 109.668 31.1451 109.343 30.8298 108.858L29.1849 106.342C28.9362 105.961 28.5493 105.714 28.0996 105.645C27.65 105.576 27.1934 105.707 26.8559 105.986L24.8554 107.651C24.2051 108.2 23.3434 108.434 22.5017 108.306L4.52689 105.56C4.61645 108.063 5.02339 110.497 5.74147 112.825L18.3798 114.744Z" fill="white"/>
<path d="M42.5858 89.0505C43.0355 89.1192 43.4787 88.9981 43.8394 88.7229L46.5666 86.6263C46.9024 86.3591 47.3439 86.2495 47.7705 86.3147L47.8627 86.3288C48.3124 86.3975 48.6975 86.6569 48.9462 87.037L50.5858 89.5883C50.9012 90.073 51.4061 90.3979 51.971 90.4842L57.2862 91.2962C53.2533 83.7896 45.8695 78.2135 36.8072 76.8292C27.7448 75.4448 19.0216 78.5603 12.9314 84.5205L42.5858 89.0505Z" fill="white"/>
<path d="M26.4858 123.002L19.2221 121.893C18.6571 121.806 18.1522 121.482 17.8369 120.997L16.1955 118.457C15.9468 118.077 15.5599 117.829 15.1102 117.76C14.6606 117.692 14.204 117.823 13.8665 118.101L11.866 119.766C11.2157 120.316 10.354 120.55 9.51231 120.421L9.39701 120.404C13.6307 126.596 20.3172 131.098 28.3304 132.322C36.3435 133.546 44.0576 131.244 49.9585 126.6L26.4858 123.002Z" fill="white"/>
</g>
</g>
</g>
<g opacity="0.8">
<rect x="45.3076" y="0.500977" width="114.196" height="40.9884" rx="20.4942" transform="rotate(16.2165 45.3076 0.500977)" fill="#59C5C2"/>
<g clip-path="url(#clip2_318_13147)">
<path d="M67.862 20.9643C68.0304 20.433 68.403 19.9903 68.8978 19.7337C69.3926 19.4771 69.9691 19.4276 70.5004 19.5961C71.0318 19.7645 71.4744 20.1371 71.731 20.6319C71.9876 21.1267 72.0371 21.7032 71.8687 22.2345L70.0904 27.844" stroke="white" stroke-width="1.68131" stroke-linecap="round" stroke-linejoin="round"/>
<path d="M63.3468 21.2967L64.3629 18.0913C64.5314 17.5599 64.904 17.1173 65.3988 16.8607C65.8936 16.6041 66.4701 16.5546 67.0014 16.723C67.5327 16.8914 67.9754 17.2641 68.232 17.7589C68.4886 18.2537 68.5381 18.8302 68.3697 19.3615L66.2103 26.173" stroke="white" stroke-width="1.68131" stroke-linecap="round" stroke-linejoin="round"/>
<path d="M64.1784 32.5841C64.5153 31.5215 65.2605 30.6362 66.2501 30.123C67.2398 29.6098 68.3927 29.5107 69.4554 29.8476L70.0905 27.8442C70.2589 27.3129 70.6316 26.8703 71.1264 26.6137C71.6212 26.3571 72.1977 26.3075 72.729 26.476C73.2603 26.6444 73.703 27.017 73.9596 27.5118C74.2162 28.0067 74.2657 28.5831 74.0972 29.1145L72.954 32.7205C72.2803 34.8459 70.7898 36.6165 68.8106 37.6429C66.8313 38.6693 64.5254 38.8674 62.4001 38.1936C60.2748 37.5198 58.5042 36.0294 57.4778 34.0501C56.4514 32.0709 56.2533 29.7649 56.927 27.6396L59.3405 20.0268C59.5089 19.4955 59.8815 19.0528 60.3763 18.7962C60.8712 18.5396 61.4476 18.4901 61.979 18.6586C62.5103 18.827 62.9529 19.1996 63.2095 19.6944C63.4661 20.1892 63.5157 20.7657 63.3472 21.297L61.95 25.7045" stroke="white" stroke-width="1.68131" stroke-linecap="round" stroke-linejoin="round"/>
</g>
<path d="M85.1903 40.804L89.2001 26.8757L91.8266 27.6318L90.1711 33.3822L95.3444 34.8716L96.9999 29.1212L99.6264 29.8773L95.6166 43.8056L92.9901 43.0495L94.657 37.2593L89.4837 35.7699L87.8167 41.5601L85.1903 40.804ZM103.58 46.3999C101.829 45.8958 100.574 45.0172 99.8139 43.7643C99.058 42.4981 98.9378 40.9696 99.4534 39.1788L100.416 35.836C100.931 34.0452 101.844 32.8212 103.154 32.164C104.467 31.4935 105.999 31.4104 107.75 31.9144C109.501 32.4185 110.755 33.3037 111.51 34.5699C112.27 35.8229 112.392 37.3447 111.877 39.1355L110.914 42.4783C110.399 44.2691 109.484 45.4997 108.171 46.1702C106.861 46.8274 105.331 46.9039 103.58 46.3999ZM104.256 44.0519C105.238 44.3345 106.082 44.2689 106.79 43.8551C107.499 43.4413 107.99 42.7568 108.265 41.8018L109.273 38.2998C109.548 37.3447 109.496 36.5037 109.116 35.7767C108.736 35.0497 108.056 34.545 107.074 34.2624C106.106 33.9836 105.261 34.0492 104.54 34.4592C103.832 34.873 103.34 35.5575 103.065 36.5126L102.057 40.0145C101.782 40.9696 101.834 41.8106 102.214 42.5376C102.607 43.2684 103.288 43.7732 104.256 44.0519ZM110.85 48.191L111.514 45.8829L113.345 46.4099L116.025 37.0979L114.195 36.5709L114.859 34.2628L120.59 35.9125C122.46 36.451 123.742 37.3371 124.435 38.571C125.146 39.7954 125.232 41.3428 124.694 43.2132L123.937 45.8396C123.399 47.71 122.501 48.9814 121.245 49.6539C120.005 50.317 118.45 50.3793 116.58 49.8408L110.85 48.191ZM115.994 47.0865L117.307 47.4645C118.368 47.7701 119.225 47.7149 119.876 47.2991C120.527 46.8832 120.998 46.1712 121.288 45.1631L122.09 42.3774C122.384 41.356 122.364 40.5028 122.03 39.8176C121.699 39.1192 121.003 38.6172 119.942 38.3117L118.629 37.9336L115.994 47.0865ZM124.5 52.1208L128.509 38.1925L131.136 38.9486L127.813 50.4892L134.181 52.3222L133.493 54.7099L124.5 52.1208Z" fill="white"/>
</g>
</g>
<defs>
<clipPath id="clip0_318_13147">
<rect x="9.06152" y="72.5908" width="57.6396" height="56.1246" rx="4.39159" transform="rotate(8.68541 9.06152 72.5908)" fill="white"/>
</clipPath>
<clipPath id="clip1_318_13147">
<rect width="55.903" height="56.1246" fill="white" transform="translate(9.1709 72.6074) rotate(8.68541)"/>
</clipPath>
<clipPath id="clip2_318_13147">
<rect width="26.901" height="26.901" fill="white" transform="translate(56.9453 10.8896) rotate(17.5897)"/>
</clipPath>
</defs>
</svg>
