<svg width="37" height="38" viewBox="0 0 37 38" fill="none" xmlns="http://www.w3.org/2000/svg">
<g clip-path="url(#clip0_295_6392)">
<path d="M28.4926 12.3585L25.2576 12.3844C24.8837 12.3874 24.5238 12.23 24.2698 11.9497L22.9456 10.48C22.7454 10.2603 22.4697 10.1328 22.1721 10.1352C21.8746 10.1376 21.6009 10.2695 21.4043 10.4924L20.2853 11.7756C19.9224 12.1905 19.3903 12.439 18.8409 12.4434L1.13197 12.5852C0.639828 14.016 0.323902 15.537 0.20684 17.1175L16.9239 16.9836C17.2215 16.9812 17.4951 16.8569 17.6994 16.6416L19.2429 15.004C19.432 14.7965 19.7058 14.6798 19.9805 14.6776L20.0415 14.6771C20.3391 14.6747 20.6148 14.8023 20.8149 15.0219L22.1391 16.4916C22.3932 16.7719 22.753 16.9293 23.1269 16.9263L36.7691 16.8171C36.6268 15.2463 36.2865 13.723 35.7715 12.2926L28.4926 12.3585Z" fill="white"/>
<path d="M10.3997 26.5581C10.6973 26.5557 10.971 26.4314 11.1753 26.2161L12.7188 24.5785C12.9155 24.3709 13.1816 24.2543 13.4639 24.252L13.525 24.2515C13.8225 24.2491 14.1059 24.3766 14.2983 24.5887L15.6225 26.0584C15.8766 26.3387 16.2364 26.4961 16.6103 26.4931L35.1051 26.345C35.7879 24.905 36.2792 23.3673 36.5715 21.7549L18.8168 21.8971C18.443 21.9001 18.0831 21.7428 17.829 21.4625L16.505 20.008C16.3048 19.7883 16.0292 19.6685 15.7316 19.6708C15.434 19.6732 15.1528 19.8052 14.9637 20.0204L13.8447 21.3036C13.4818 21.7262 12.9496 21.967 12.3927 21.9715L0.497698 22.0667C0.815784 23.6742 1.33164 25.2038 2.03744 26.6326L10.3997 26.5581Z" fill="white"/>
<path d="M23.3634 7.44675C23.661 7.44436 23.9347 7.32009 24.139 7.1048L25.6824 5.46715C25.8715 5.25961 26.1453 5.14296 26.4276 5.1407L26.4886 5.14021C26.7862 5.13783 27.0619 5.26534 27.2621 5.48502L28.5863 6.96236C28.8404 7.24265 29.2002 7.40001 29.5741 7.39701L33.0915 7.36885C29.7063 2.93977 24.3576 0.105915 18.3605 0.153936C12.3635 0.201958 7.05321 3.12116 3.73938 7.60388L23.3634 7.44675Z" fill="white"/>
<path d="M16.4946 31.0496L11.6877 31.0881C11.3139 31.0911 10.954 30.9337 10.6999 30.6534L9.37575 29.1837C9.17561 28.964 8.89995 28.8441 8.60239 28.8465C8.30482 28.8489 8.02356 28.9809 7.83452 29.196L6.7155 30.4793C6.35263 30.9019 5.82043 31.1427 5.26345 31.1471L5.18715 31.1478C8.56538 34.707 13.3521 36.9197 18.6548 36.8772C23.9576 36.8348 28.7006 34.5458 32.029 30.9328L16.4946 31.0496Z" fill="white"/>
</g>
<defs>
<clipPath id="clip0_295_6392">
<rect width="36.5711" height="36.7166" fill="white" transform="translate(0.0722656 0.300781) rotate(-0.458782)"/>
</clipPath>
</defs>
</svg>
