<svg width="54" height="55" viewBox="0 0 54 55" fill="none" xmlns="http://www.w3.org/2000/svg">
<path d="M54 27.5C54 42.4117 41.9117 54.5 27 54.5C12.0883 54.5 0 42.4117 0 27.5C0 12.5883 12.0883 0.5 27 0.5C41.9117 0.5 54 12.5883 54 27.5Z" fill="#121212"/>
<path fill-rule="evenodd" clip-rule="evenodd" d="M27 51.196C40.0869 51.196 50.696 40.5869 50.696 27.5C50.696 14.4131 40.0869 3.80402 27 3.80402C13.9131 3.80402 3.30402 14.4131 3.30402 27.5C3.30402 40.5869 13.9131 51.196 27 51.196ZM27 54.5C41.9117 54.5 54 42.4117 54 27.5C54 12.5883 41.9117 0.5 27 0.5C12.0883 0.5 0 12.5883 0 27.5C0 42.4117 12.0883 54.5 27 54.5Z" fill="#45A9A7"/>
<path d="M41.1396 16.3364C38.8115 13.5406 35.6701 11.5397 32.1521 10.6119C28.6341 9.68404 24.9145 9.87544 21.5104 11.1594C18.1062 12.4434 15.1867 14.7562 13.1579 17.7763C11.129 20.7963 10.0915 24.3734 10.1897 28.0104C10.288 31.6473 11.517 35.1632 13.7059 38.0694C15.8948 40.9755 18.9349 43.1273 22.4034 44.2257C25.8718 45.3241 29.5964 45.3145 33.0591 44.1981C36.5219 43.0818 39.5508 40.9142 41.7246 37.9968L35.5919 33.4272C34.3678 35.0699 32.6623 36.2905 30.7125 36.9191C28.7626 37.5477 26.6654 37.5531 24.7123 36.9346C22.7592 36.3161 21.0474 35.1044 19.8148 33.468C18.5823 31.8316 17.8902 29.8518 17.8349 27.8039C17.7796 25.756 18.3638 23.7417 19.5062 22.0412C20.6487 20.3406 22.2926 19.0383 24.2095 18.3153C26.1263 17.5923 28.2208 17.4845 30.2017 18.007C32.1827 18.5294 33.9516 19.6561 35.2625 21.2304L41.1396 16.3364Z" fill="white"/>
<path d="M41.1396 16.3364C38.75 13.4668 35.5052 11.4365 31.8795 10.5423C28.2538 9.64813 24.4371 9.9369 20.9872 11.3664L23.9149 18.4319C25.8575 17.6269 28.0066 17.4643 30.0482 17.9678C32.0899 18.4713 33.9169 19.6145 35.2625 21.2304L41.1396 16.3364Z" fill="url(#paint0_linear_295_6379)"/>
<path fill-rule="evenodd" clip-rule="evenodd" d="M30.6854 21.0778C31.0102 21.1947 31.1788 21.5528 31.0619 21.8777L28.5784 28.779C28.4615 29.1039 28.1034 29.2725 27.7785 29.1556L26.0138 28.5205C25.6889 28.4036 25.5203 28.0455 25.6372 27.7206L28.1207 20.8193C28.2376 20.4944 28.5958 20.3259 28.9206 20.4428L30.6854 21.0778Z" fill="#4CB3AD"/>
<defs>
<linearGradient id="paint0_linear_295_6379" x1="11.4931" y1="14.025" x2="39.0607" y2="33.515" gradientUnits="userSpaceOnUse">
<stop stop-color="#80FFD9"/>
<stop offset="0.978741" stop-color="#01476E"/>
</linearGradient>
</defs>
</svg>
