<svg width="16" height="17" viewBox="0 0 16 17" fill="none" xmlns="http://www.w3.org/2000/svg">
<g clip-path="url(#clip0_668_10730)">
<path fill-rule="evenodd" clip-rule="evenodd" d="M8.84961 2.99951C8.84967 2.64052 9.14073 2.34955 9.49971 2.34961L13.4991 2.35023C13.858 2.35029 14.1489 2.64123 14.149 3.00013L14.1496 6.99951C14.1497 7.35849 13.8587 7.64955 13.4997 7.64961C13.1407 7.64967 12.8497 7.3587 12.8496 6.99971L12.8491 3.65013L9.49951 3.64961C9.14052 3.64955 8.84955 3.35849 8.84961 2.99951Z" fill="white"/>
<path fill-rule="evenodd" clip-rule="evenodd" d="M13.9592 2.53999C14.2131 2.79383 14.2131 3.20539 13.9592 3.45923L8.95923 8.45923C8.70539 8.71307 8.29383 8.71307 8.03999 8.45923C7.78615 8.20539 7.78615 7.79383 8.03999 7.53999L13.04 2.53999C13.2938 2.28615 13.7054 2.28615 13.9592 2.53999Z" fill="white"/>
<path fill-rule="evenodd" clip-rule="evenodd" d="M3.14961 5.64961H7.49961C7.85859 5.64961 8.14961 5.35859 8.14961 4.99961C8.14961 4.64062 7.85859 4.34961 7.49961 4.34961H2.99961C2.69461 4.34961 2.4021 4.47077 2.18644 4.68644C1.97077 4.9021 1.84961 5.19461 1.84961 5.49961V13.4996C1.84961 13.8046 1.97077 14.0971 2.18644 14.3128C2.4021 14.5285 2.69461 14.6496 2.99961 14.6496H10.9996C11.3046 14.6496 11.5971 14.5285 11.8128 14.3128C12.0285 14.0971 12.1496 13.8046 12.1496 13.4996V8.99961C12.1496 8.64062 11.8586 8.34961 11.4996 8.34961C11.1406 8.34961 10.8496 8.64062 10.8496 8.99961V13.3496H3.14961V5.64961Z" fill="white"/>
</g>
<defs>
<clipPath id="clip0_668_10730">
<rect width="16" height="16" fill="white" transform="translate(0 0.5)"/>
</clipPath>
</defs>
</svg>
