<svg width="359" height="319" viewBox="0 0 359 319" fill="none" xmlns="http://www.w3.org/2000/svg">
<mask id="mask0_318_10292" style="mask-type:alpha" maskUnits="userSpaceOnUse" x="0" y="0" width="359" height="319">
<rect y="0.160156" width="359" height="317.872" rx="16" fill="url(#paint0_linear_318_10292)" fill-opacity="0.44"/>
<rect x="0.5" y="0.660156" width="358" height="316.872" rx="15.5" stroke="url(#paint1_linear_318_10292)" stroke-opacity="0.8"/>
</mask>
<g mask="url(#mask0_318_10292)">
<mask id="mask1_318_10292" style="mask-type:alpha" maskUnits="userSpaceOnUse" x="-249" y="-407" width="1235" height="877">
<path d="M14.0636 128.078C31.7667 184.61 242.117 189.05 249.123 253.736C242.023 369.234 199.754 355.276 212.07 409.975C281.086 562.089 806.751 379.731 985.149 351.704C576.975 -66.818 338.397 -323.449 -248.323 -406.41C-234.464 -346.655 -249.637 -202.903 -221.372 -157.571C-186.041 -100.906 -130.46 1.45685 33.1926 -80.959C104.392 -116.815 -8.06538 57.4132 14.0636 128.078Z" fill="url(#paint2_linear_318_10292)"/>
</mask>
<g mask="url(#mask1_318_10292)">
<path fill-rule="evenodd" clip-rule="evenodd" d="M403.382 838.883L406.788 841.631L919.828 463.034L916.423 460.287L403.382 838.883ZM377.133 817.705L383.945 823.201L896.985 444.605L890.173 439.109L377.133 817.705ZM350.883 796.528L357.695 802.023L870.735 423.427L863.924 417.931L350.883 796.528ZM324.634 775.35L331.446 780.845L844.486 402.249L837.674 396.754L324.634 775.35ZM298.384 754.172L305.196 759.668L818.236 381.072L811.424 375.576L298.384 754.172ZM272.135 732.995L278.947 738.49L791.987 359.894L785.175 354.398L272.135 732.995ZM245.885 711.817L252.697 717.312L765.737 338.716L758.925 333.221L245.885 711.817ZM219.636 690.639L226.447 696.135L739.488 317.539L732.676 312.043L219.636 690.639ZM193.386 669.462L200.198 674.957L713.238 296.361L706.426 290.865L193.386 669.462ZM167.137 648.284L173.948 653.779L686.988 275.183L680.177 269.688L167.137 648.284ZM140.887 627.106L147.699 632.602L660.739 254.006L653.927 248.51L140.887 627.106ZM114.638 605.929L121.449 611.424L634.489 232.828L627.678 227.332L114.638 605.929ZM88.388 584.751L95.1997 590.246L608.24 211.65L601.428 206.155L88.388 584.751ZM62.1384 563.573L68.9502 569.069L581.99 190.473L575.179 184.977L62.1384 563.573ZM35.8889 542.396L42.7007 547.891L555.741 169.295L548.929 163.799L35.8889 542.396ZM9.63944 521.218L16.4511 526.714L529.491 148.117L522.68 142.622L9.63944 521.218ZM-16.6101 500.04L-9.79843 505.536L503.242 126.94L496.43 121.444L-16.6101 500.04ZM-42.8597 478.863L-36.0479 484.358L476.992 105.762L470.181 100.266L-42.8597 478.863ZM-69.1092 457.685L-62.2974 463.181L450.743 84.5843L443.931 79.0888L-69.1092 457.685ZM-95.3587 436.507L-88.5471 442.003L424.493 63.4066L417.681 57.9111L-95.3587 436.507ZM-121.608 415.33L-114.797 420.825L398.244 42.229L391.432 36.7335L-121.608 415.33ZM-147.858 394.152L-141.046 399.648L371.994 21.0514L365.182 15.5558L-147.858 394.152ZM-174.107 372.974L-167.296 378.47L345.744 -0.126338L338.933 -5.62185L-174.107 372.974ZM-200.357 351.797L-193.545 357.292L319.495 -21.304L312.683 -26.7995L-200.357 351.797ZM-226.606 330.619L-219.795 336.115L293.245 -42.4816L286.434 -47.9771L-226.606 330.619ZM-252.856 309.441L-246.044 314.937L266.996 -63.6593L260.184 -69.1548L-252.856 309.441ZM-279.105 288.264L-272.294 293.759L240.746 -84.837L233.935 -90.3325L-279.105 288.264ZM-305.355 267.086L-298.543 272.582L214.497 -106.015L207.685 -111.51L-305.355 267.086ZM-331.604 245.908L-324.793 251.404L188.247 -127.192L181.436 -132.688L-331.604 245.908ZM-357.854 224.731L-351.042 230.226L161.998 -148.37L155.186 -153.865L-357.854 224.731ZM-384.104 203.553L-377.292 209.049L135.748 -169.548L128.937 -175.043L-384.104 203.553ZM-410.353 182.375L-403.541 187.871L109.499 -190.725L102.687 -196.221L-410.353 182.375ZM-436.603 161.198L-429.791 166.693L83.2492 -211.903L76.4374 -217.399L-436.603 161.198ZM-462.852 140.02L-456.041 145.516L56.9996 -233.081L50.1879 -238.576L-462.852 140.02ZM-489.102 118.842L-482.29 124.338L30.7501 -254.258L23.9385 -259.754L-489.102 118.842ZM-515.351 97.6647L-508.54 103.16L4.50055 -275.436L-2.31111 -280.932L-515.351 97.6647ZM-541.601 76.487L-534.789 81.9827L-21.749 -296.614L-28.5607 -302.109L-541.601 76.487ZM-567.85 55.3094L-561.039 60.805L-47.9984 -317.791L-54.8102 -323.287L-567.85 55.3094ZM-594.1 34.1317L-587.288 39.6273L-74.2481 -338.969L-81.0597 -344.464L-594.1 34.1317ZM-620.349 12.9541L-613.538 18.4497L-100.498 -360.146L-107.309 -365.642L-620.349 12.9541ZM-643.193 -5.47589L-639.787 -2.72789L-126.747 -381.324L-130.153 -384.072L-643.193 -5.47589Z" fill="#67E6F9"/>
</g>
</g>
<defs>
<linearGradient id="paint0_linear_318_10292" x1="0" y1="0.160156" x2="411.087" y2="12.9663" gradientUnits="userSpaceOnUse">
<stop stop-color="#753CAB"/>
<stop offset="1" stop-color="#A251AF"/>
</linearGradient>
<linearGradient id="paint1_linear_318_10292" x1="61.6922" y1="-8.70038" x2="276.867" y2="40.1425" gradientUnits="userSpaceOnUse">
<stop stop-color="#F9BFFE" stop-opacity="0.92"/>
<stop offset="1" stop-color="#EEAAF3" stop-opacity="0.4"/>
</linearGradient>
<linearGradient id="paint2_linear_318_10292" x1="160.896" y1="201.703" x2="-225.357" y2="-448.046" gradientUnits="userSpaceOnUse">
<stop stop-color="#BB5EB3"/>
<stop offset="0.260088" stop-color="#522BB1"/>
<stop offset="1" stop-color="#AC5691"/>
</linearGradient>
</defs>
</svg>
