<svg width="210" height="36" viewBox="0 0 210 36" fill="none" xmlns="http://www.w3.org/2000/svg">
<path d="M37.0339 31.7959V3.10613H49.9645C51.3114 3.10613 52.5506 3.38899 53.682 3.9547C54.8404 4.49348 55.8371 5.23429 56.6722 6.17715C57.5073 7.09307 58.1539 8.13021 58.6118 9.28857C59.0967 10.4469 59.3392 11.6188 59.3392 12.8041C59.3392 13.9894 59.1506 15.1208 58.7735 16.1984C58.3963 17.249 57.8575 18.2053 57.1571 19.0673C56.4567 19.9024 55.6216 20.5894 54.6518 21.1282L60.9555 31.7959H53.6416L48.1461 22.5424H43.6608V31.7959H37.0339ZM43.6608 16.7641H49.722C50.2608 16.7641 50.7322 16.6024 51.1363 16.2792C51.5673 15.929 51.9175 15.4575 52.1869 14.8649C52.4563 14.2722 52.591 13.5853 52.591 12.8041C52.591 12.0229 52.4294 11.3494 52.1061 10.7837C51.8098 10.191 51.4326 9.73306 50.9747 9.4098C50.5167 9.08653 50.0318 8.9249 49.52 8.9249H43.6608V16.7641ZM87.5005 25.9771V31.7959H67.3368V3.10613H87.1368V8.9249H73.9637V14.5012H85.278V19.8755H73.9637V25.9771H87.5005ZM94.7591 31.7959V3.10613H105.467C108.619 3.10613 111.246 3.75266 113.347 5.04572C115.475 6.31184 117.078 8.03592 118.155 10.218C119.233 12.3731 119.772 14.7706 119.772 17.4106C119.772 20.32 119.179 22.8522 117.994 25.0073C116.808 27.1624 115.138 28.8326 112.983 30.0179C110.855 31.2032 108.35 31.7959 105.467 31.7959H94.7591ZM113.024 17.4106C113.024 15.7404 112.727 14.2722 112.135 13.0061C111.542 11.7131 110.68 10.7163 109.548 10.0159C108.417 9.28857 107.057 8.9249 105.467 8.9249H101.386V25.9771H105.467C107.084 25.9771 108.444 25.6135 109.548 24.8861C110.68 24.1318 111.542 23.1082 112.135 21.8151C112.727 20.4951 113.024 19.0269 113.024 17.4106Z" fill="white"/>
<path d="M30.4689 7.66839C28.3218 5.09002 25.4247 3.24472 22.1804 2.38906C18.9361 1.53341 15.5057 1.70992 12.3663 2.89405C9.22697 4.07819 6.53457 6.2111 4.66349 8.99623C2.79242 11.7814 1.83566 15.0803 1.92624 18.4343C2.01682 21.7884 3.15024 25.0309 5.16891 27.7109C7.18758 30.391 9.99118 32.3755 13.1899 33.3885C16.3886 34.4014 19.8235 34.3925 23.0169 33.363C26.2103 32.3335 29.0036 30.3345 31.0084 27.644L25.3527 23.4298C24.2238 24.9448 22.6509 26.0704 20.8527 26.6501C19.0546 27.2299 17.1204 27.2349 15.3192 26.6645C13.5181 26.0941 11.9394 24.9766 10.8027 23.4675C9.66601 21.9584 9.02779 20.1326 8.97678 18.2439C8.92578 16.3553 9.46452 14.4977 10.5181 12.9294C11.5717 11.3611 13.0878 10.1601 14.8555 9.49333C16.6233 8.82656 18.5549 8.72717 20.3817 9.20898C22.2086 9.69079 23.8399 10.7299 25.0489 12.1817L30.4689 7.66839Z" fill="white"/>
<path d="M30.4689 7.66839C28.2651 5.02191 25.2727 3.14955 21.929 2.32492C18.5853 1.50029 15.0655 1.7666 11.8839 3.08495L14.5838 9.60083C16.3754 8.85848 18.3573 8.70852 20.2402 9.17286C22.123 9.6372 23.808 10.6915 25.0489 12.1817L30.4689 7.66839Z" fill="url(#paint0_linear_395_19088)"/>
<path fill-rule="evenodd" clip-rule="evenodd" d="M20.8276 12.0409C21.1272 12.1488 21.2827 12.479 21.1749 12.7787L18.8846 19.1432C18.7768 19.4428 18.4465 19.5983 18.1469 19.4905L16.5194 18.9048C16.2198 18.797 16.0643 18.4667 16.1721 18.1671L18.4625 11.8026C18.5703 11.503 18.9005 11.3475 19.2002 11.4553L20.8276 12.0409Z" fill="#4CB3AD"/>
<defs>
<linearGradient id="paint0_linear_395_19088" x1="3.12822" y1="5.53669" x2="28.5517" y2="23.5108" gradientUnits="userSpaceOnUse">
<stop stop-color="#80FFD9"/>
<stop offset="0.978741" stop-color="#01476E"/>
</linearGradient>
</defs>
</svg>
