<svg width="100" height="25" viewBox="0 0 100 25" fill="none" xmlns="http://www.w3.org/2000/svg">
<path d="M76.4207 8.2731H74.3657C74.1267 8.2731 73.8987 8.1701 73.7397 7.9911L72.9067 7.0501C72.7827 6.9101 72.6037 6.8291 72.4167 6.8291C72.2297 6.8291 72.0507 6.9091 71.9267 7.0501L71.2117 7.8581C70.9777 8.1221 70.6417 8.2741 70.2887 8.2741H59.0427C58.7227 9.1871 58.5137 10.1511 58.4307 11.1521H69.0477C69.2347 11.1521 69.4127 11.0761 69.5417 10.9411L70.5307 9.9101C70.6537 9.7811 70.8247 9.7081 71.0027 9.7081H71.0437C71.2307 9.7081 71.4097 9.7881 71.5337 9.9291L72.3667 10.8701C72.5257 11.0491 72.7527 11.1521 72.9927 11.1521H81.6587C81.5757 10.1511 81.3667 9.1871 81.0467 8.2741H76.4207V8.2731Z" fill="white"/>
<path d="M64.8568 17.2006C65.0438 17.2006 65.2218 17.1246 65.3508 16.9896L66.3398 15.9586C66.4628 15.8296 66.6338 15.7566 66.8118 15.7566H66.8528C67.0398 15.7566 67.2188 15.8366 67.3428 15.9776L68.1758 16.9186C68.3348 17.0976 68.5618 17.2006 68.8018 17.2006H80.5458C80.9858 16.2916 81.3078 15.3156 81.4998 14.2946H70.2278C69.9888 14.2946 69.7608 14.1916 69.6018 14.0126L68.7688 13.0716C68.6448 12.9316 68.4658 12.8506 68.2788 12.8506C68.0918 12.8506 67.9128 12.9306 67.7888 13.0716L67.0738 13.8796C66.8398 14.1436 66.5038 14.2956 66.1508 14.2956H58.5918C58.7838 15.3176 59.1058 16.2926 59.5458 17.2016H64.8568V17.2006Z" fill="white"/>
<path d="M73.1886 5.12866C73.3756 5.12866 73.5536 5.05266 73.6826 4.91766L74.6716 3.88666C74.7946 3.75766 74.9656 3.68466 75.1436 3.68466H75.1846C75.3716 3.68466 75.5506 3.76466 75.6746 3.90566L76.5076 4.84666C76.6666 5.02566 76.8936 5.12866 77.1336 5.12866H79.3666C77.2396 2.30166 73.8566 0.472656 70.0466 0.472656C66.2366 0.472656 62.8536 2.30166 60.7266 5.12866H73.1896H73.1886Z" fill="white"/>
<path d="M68.7024 20.0817H65.6484C65.4094 20.0817 65.1814 19.9787 65.0224 19.7997L64.1894 18.8587C64.0654 18.7187 63.8864 18.6377 63.6994 18.6377C63.5124 18.6377 63.3334 18.7177 63.2094 18.8587L62.4944 19.6667C62.2604 19.9307 61.9244 20.0827 61.5714 20.0827H61.5234C63.6514 22.3627 66.6804 23.7897 70.0454 23.7897C73.4104 23.7897 76.4394 22.3627 78.5674 20.0827H68.7024V20.0817Z" fill="white"/>
<path d="M18.5098 23.0356L16.1378 17.2746H5.54076L3.16876 23.0356H0.426758L10.8238 1.22559L21.2518 23.0356H18.5098ZM6.43376 15.0876H15.2138L10.8098 5.79559L6.43476 15.0876H6.43376Z" fill="white"/>
<path d="M25.0391 23.0356V1.22559H31.1081C35.8521 1.22559 38.3471 3.41259 38.3471 7.50959C38.3471 11.6066 35.6981 13.7326 31.0771 13.7326H27.5961V23.0356H25.0391ZM27.5961 11.4526H30.4921C34.1581 11.4526 35.7601 10.2516 35.7601 7.50959C35.7601 4.76759 34.1271 3.50459 30.4921 3.50459H27.5961V11.4526Z" fill="white"/>
<path d="M47.6342 3.56659H40.1182V1.22559H57.7082V3.56659H50.1912V23.0356H47.6342V3.56659Z" fill="white"/>
<path d="M85.2588 19.0617L87.4608 17.5677L87.6308 17.9217C88.9858 20.3857 90.4648 21.3717 92.7138 21.3717C95.2088 21.3717 96.9648 19.6467 96.9648 17.5517C96.9648 15.5797 95.9788 14.2557 92.0358 12.6227C87.5078 10.7437 85.9668 8.80265 85.9668 6.03065C85.9668 3.01165 88.3388 0.639648 92.4358 0.639648C95.4548 0.639648 97.5188 1.93365 98.6898 4.02865L96.9028 5.26065L96.3788 5.13765C95.4548 3.68965 94.3148 2.85765 92.3738 2.85765C90.0018 2.85765 88.6158 4.18265 88.6158 5.96865C88.6158 7.63165 89.5088 8.58665 93.3598 10.3427C98.3808 12.6227 99.6138 14.5017 99.6138 17.5207C99.6138 20.8167 96.7798 23.6197 92.7438 23.6197C89.3548 23.6197 87.0138 22.3257 85.2578 19.0607L85.2588 19.0617Z" fill="white"/>
</svg>
