<svg width="200" height="86" viewBox="0 0 200 86" fill="none" xmlns="http://www.w3.org/2000/svg">
<path d="M61.7222 52.9185V5.10213H83.2732C85.5181 5.10213 87.5834 5.57356 89.4691 6.51642C91.3997 7.41437 93.0609 8.64907 94.4528 10.2205C95.8446 11.747 96.9222 13.4756 97.6854 15.4062C98.4936 17.3368 98.8977 19.2899 98.8977 21.2654C98.8977 23.2409 98.5834 25.1266 97.9548 26.9225C97.3263 28.6736 96.4283 30.2674 95.2609 31.7042C94.0936 33.096 92.7018 34.2409 91.0854 35.1389L101.592 52.9185H89.4018L80.2426 37.496H72.7671V52.9185H61.7222ZM72.7671 27.8654H82.8691C83.7671 27.8654 84.5528 27.596 85.2263 27.0572C85.9446 26.4736 86.5283 25.6878 86.9773 24.7001C87.4263 23.7123 87.6507 22.5674 87.6507 21.2654C87.6507 19.9634 87.3814 18.8409 86.8426 17.898C86.3487 16.9103 85.7201 16.147 84.9569 15.6083C84.1936 15.0695 83.3854 14.8001 82.5324 14.8001H72.7671V27.8654ZM145.833 43.2205V52.9185H112.227V5.10213H145.227V14.8001H123.272V24.094H142.129V33.0511H123.272V43.2205H145.833ZM157.931 52.9185V5.10213H175.778C181.031 5.10213 185.409 6.17968 188.911 8.33478C192.457 10.445 195.129 13.3185 196.925 16.9552C198.721 20.547 199.619 24.5429 199.619 28.9429C199.619 33.7919 198.631 38.0123 196.655 41.6042C194.68 45.196 191.896 47.9797 188.304 49.9552C184.757 51.9307 180.582 52.9185 175.778 52.9185H157.931ZM188.372 28.9429C188.372 26.1593 187.878 23.7123 186.89 21.6021C185.902 19.447 184.466 17.7858 182.58 16.6185C180.694 15.4062 178.427 14.8001 175.778 14.8001H168.976V43.2205H175.778C178.472 43.2205 180.739 42.6144 182.58 41.4021C184.466 40.145 185.902 38.4389 186.89 36.2838C187.878 34.0838 188.372 31.6368 188.372 28.9429Z" fill="white"/>
<path d="M50.7848 12.3716C47.2064 8.07433 42.3778 4.99883 36.9706 3.57274C31.5634 2.14664 25.8462 2.44082 20.6139 4.41438C15.3816 6.38794 10.8942 9.9428 7.77576 14.5847C4.6573 19.2266 3.06269 24.7248 3.21366 30.3149C3.36463 35.905 5.25367 41.3091 8.61812 45.7759C11.9826 50.2427 16.6552 53.5502 21.9864 55.2385C27.3176 56.9268 33.0424 56.9119 38.3648 55.1961C43.6872 53.4802 48.3426 50.1486 51.6839 45.6644L42.2577 38.6407C40.3763 41.1657 37.7548 43.0417 34.7579 44.0079C31.7609 44.9741 28.5373 44.9824 25.5354 44.0318C22.5334 43.0811 19.9023 41.2187 18.0078 38.7035C16.1133 36.1883 15.0496 33.1453 14.9646 29.9975C14.8796 26.8498 15.7775 23.7538 17.5335 21.14C19.2894 18.5262 21.8162 16.5245 24.7625 15.4132C27.7087 14.3019 30.9281 14.1362 33.9728 14.9393C37.0176 15.7423 39.7365 17.4741 41.7515 19.8938L50.7848 12.3716Z" fill="white"/>
<path d="M50.7848 12.3716C47.1118 7.96081 42.1245 4.84021 36.5516 3.46583C30.9787 2.09144 25.1124 2.5353 19.8097 4.73255L24.3097 15.5923C27.2956 14.3551 30.5989 14.1052 33.7369 14.8791C36.8749 15.653 39.6832 17.4102 41.7515 19.8938L50.7848 12.3716Z" fill="url(#paint0_linear_1128_10624)"/>
<path fill-rule="evenodd" clip-rule="evenodd" d="M34.7169 19.6596C35.2163 19.8392 35.4754 20.3897 35.2957 20.8891L31.4785 31.4966C31.2988 31.996 30.7484 32.2551 30.249 32.0754L27.5366 31.0993C27.0372 30.9196 26.7781 30.3692 26.9578 29.8698L30.775 19.2623C30.9547 18.7629 31.5051 18.5038 32.0045 18.6835L34.7169 19.6596Z" fill="#4CB3AD"/>
<path d="M21.6477 78.6836V67.0472H23.7045V71.3995H23.7898C23.8958 71.1874 24.0455 70.962 24.2386 70.7234C24.4318 70.4809 24.6932 70.2745 25.0227 70.104C25.3523 69.9298 25.7727 69.8427 26.2841 69.8427C26.9583 69.8427 27.5663 70.015 28.108 70.3597C28.6534 70.7006 29.0852 71.2063 29.4034 71.8768C29.7254 72.5434 29.8864 73.3616 29.8864 74.3313C29.8864 75.2897 29.7292 76.104 29.4148 76.7745C29.1004 77.445 28.6723 77.9563 28.1307 78.3086C27.589 78.6609 26.9754 78.837 26.2898 78.837C25.7898 78.837 25.375 78.7537 25.0455 78.587C24.7159 78.4203 24.4508 78.2196 24.25 77.9847C24.053 77.7461 23.8996 77.5207 23.7898 77.3086H23.6705V78.6836H21.6477ZM23.6648 74.32C23.6648 74.8844 23.7443 75.3787 23.9034 75.8029C24.0663 76.2272 24.2992 76.5586 24.6023 76.7972C24.9091 77.0321 25.2803 77.1495 25.7159 77.1495C26.1705 77.1495 26.5511 77.0283 26.858 76.7859C27.1648 76.5397 27.3958 76.2044 27.5511 75.7802C27.7102 75.3522 27.7898 74.8654 27.7898 74.32C27.7898 73.7783 27.7121 73.2972 27.5568 72.8768C27.4015 72.4563 27.1705 72.1268 26.8636 71.8881C26.5568 71.6495 26.1742 71.5302 25.7159 71.5302C25.2765 71.5302 24.9034 71.6457 24.5966 71.8768C24.2898 72.1078 24.0568 72.4317 23.8977 72.8484C23.7424 73.265 23.6648 73.7556 23.6648 74.32ZM32.6165 81.9563C32.3362 81.9563 32.0767 81.9336 31.8381 81.8881C31.6032 81.8465 31.4157 81.7972 31.2756 81.7404L31.7528 80.1381C32.0521 80.2253 32.3191 80.2669 32.554 80.2631C32.7888 80.2594 32.9953 80.1855 33.1733 80.0415C33.3551 79.9014 33.5085 79.6665 33.6335 79.337L33.8097 78.8654L30.6449 69.9563H32.8267L34.8381 76.5472H34.929L36.946 69.9563H39.1335L35.6392 79.7404C35.4763 80.2025 35.2604 80.5984 34.9915 80.9279C34.7225 81.2612 34.393 81.515 34.0028 81.6893C33.6165 81.8673 33.1544 81.9563 32.6165 81.9563Z" fill="white"/>
<g clip-path="url(#clip0_1128_10624)">
<path d="M59.8004 85.1836C66.5938 85.1836 72.1009 79.811 72.1009 73.1836C72.1009 66.5562 66.5938 61.1836 59.8004 61.1836C53.0071 61.1836 47.5 66.5562 47.5 73.1836C47.5 79.811 53.0071 85.1836 59.8004 85.1836Z" fill="url(#paint1_radial_1128_10624)"/>
<path d="M56.4909 66.5123C56.24 66.5472 56.1583 66.6387 56.1602 66.8868L56.166 71.4852C56.1655 72.8762 56.1515 74.2677 56.1728 75.6582C56.181 76.2053 56.2337 76.7577 56.328 77.2973C56.5779 78.7274 57.4168 79.6915 58.8677 80.0471C60.3583 80.4127 61.8407 80.2952 63.2834 79.7632C63.4232 79.7118 63.4613 79.6354 63.4343 79.4934C63.31 78.8444 63.1901 78.1949 63.0775 77.5444C63.0451 77.3595 62.959 77.3388 62.7927 77.3911C62.1666 77.5878 61.523 77.6821 60.865 77.6614C60.0083 77.634 59.5635 77.2732 59.3797 76.4558C59.3401 76.2798 59.3048 76.0987 59.3029 75.9199C59.2898 74.6153 59.2879 73.3111 59.2777 72.0069C59.2763 71.813 59.3744 71.7729 59.549 71.7734C60.6204 71.7777 61.6918 71.7715 62.7632 71.7777C62.9595 71.7786 63.0335 71.7154 63.031 71.5196C63.0223 70.8678 63.0281 70.2155 63.0272 69.5631C63.0267 69.2513 63.0194 69.2429 62.7047 69.2424C61.7058 69.241 60.7069 69.2414 59.708 69.2414C59.4202 69.2411 59.2763 69.0969 59.2763 68.8089C59.2753 67.9915 59.2695 67.1741 59.2787 66.3571C59.2811 66.1411 59.2105 66.0845 58.9954 66.1203C58.1618 66.2595 57.3278 66.3953 56.4909 66.5123Z" fill="white"/>
</g>
<path d="M81.2751 72.5422H79.7375V78.5755H77.38V72.5422H76.2012V70.2422H77.38V67.6255H79.7375V70.2422H81.2751V72.5422Z" fill="white"/>
<path d="M86.7345 78.7922C85.9486 78.7922 85.2311 78.5949 84.5819 78.2005C83.9384 77.806 83.423 77.2783 83.0358 76.6172C82.6543 75.9505 82.4635 75.2144 82.4635 74.4088C82.4635 73.7977 82.5745 73.2283 82.7966 72.7005C83.0187 72.1672 83.3234 71.7005 83.7106 71.3005C84.1036 70.8949 84.5591 70.5783 85.0773 70.3505C85.5955 70.1227 86.1479 70.0088 86.7345 70.0088C87.5203 70.0088 88.235 70.206 88.8785 70.6005C89.5277 70.9949 90.0431 71.5255 90.4246 72.1922C90.8118 72.8588 91.0055 73.5977 91.0055 74.4088C91.0055 75.0144 90.8944 75.581 90.6723 76.1088C90.4502 76.6366 90.1427 77.1033 89.7498 77.5088C89.3626 77.9088 88.9098 78.2227 88.3916 78.4505C87.8791 78.6783 87.3267 78.7922 86.7345 78.7922ZM86.7345 76.4922C87.0989 76.4922 87.4264 76.3977 87.7168 76.2088C88.0072 76.0144 88.235 75.7588 88.4002 75.4422C88.5653 75.1255 88.6479 74.781 88.6479 74.4088C88.6479 74.0255 88.5596 73.6755 88.3831 73.3588C88.2122 73.0366 87.9816 72.781 87.6912 72.5922C87.4008 72.4033 87.0819 72.3088 86.7345 72.3088C86.3757 72.3088 86.0511 72.406 85.7607 72.6005C85.4703 72.7949 85.2396 73.0505 85.0688 73.3672C84.9037 73.6838 84.8211 74.031 84.8211 74.4088C84.8211 74.8033 84.9065 75.1588 85.0773 75.4755C85.2539 75.7866 85.4874 76.0338 85.7778 76.2172C86.0682 76.4005 86.3871 76.4922 86.7345 76.4922Z" fill="white"/>
<path d="M96.8906 78.5755H94.5672L91.7142 70.2422H94.0205L95.7374 75.2338L97.4373 70.2422H99.7436L101.443 75.2338L103.152 70.2422H105.467L102.605 78.5755H100.29L98.5905 73.5755L96.8906 78.5755Z" fill="white"/>
<path d="M114.968 73.2755V78.5755H112.611V73.9088C112.611 73.6144 112.537 73.3505 112.389 73.1172C112.246 72.8783 112.053 72.6894 111.808 72.5505C111.569 72.4116 111.301 72.3422 111.005 72.3422C110.709 72.3422 110.438 72.4116 110.194 72.5505C109.949 72.6894 109.755 72.8783 109.613 73.1172C109.47 73.3505 109.399 73.6144 109.399 73.9088V78.5755H107.042L107.033 70.2422H109.391L109.399 70.8588C109.684 70.5922 110.017 70.3838 110.399 70.2338C110.786 70.0838 111.193 70.0088 111.62 70.0088C112.241 70.0088 112.802 70.156 113.303 70.4505C113.81 70.7449 114.214 71.1394 114.516 71.6338C114.818 72.1227 114.968 72.6699 114.968 73.2755Z" fill="white"/>
<path d="M120.609 78.7922C119.823 78.7922 119.106 78.5949 118.457 78.2005C117.813 77.806 117.298 77.2755 116.911 76.6088C116.529 75.9422 116.338 75.206 116.338 74.4005C116.338 73.7949 116.449 73.2283 116.672 72.7005C116.894 72.1672 117.198 71.7005 117.586 71.3005C117.978 70.8949 118.434 70.5783 118.952 70.3505C119.47 70.1227 120.023 70.0088 120.609 70.0088C121.287 70.0088 121.905 70.1505 122.463 70.4338C123.027 70.7172 123.502 71.1033 123.889 71.5922C124.282 72.081 124.561 72.6338 124.727 73.2505C124.897 73.8672 124.926 74.5088 124.812 75.1755H118.884C118.958 75.4199 119.072 75.6422 119.226 75.8422C119.385 76.0366 119.579 76.1922 119.806 76.3088C120.04 76.4255 120.308 76.4866 120.609 76.4922C120.905 76.4977 121.179 76.431 121.429 76.2922C121.68 76.1533 121.894 75.9672 122.07 75.7338L124.479 76.2755C124.131 77.0144 123.613 77.6199 122.924 78.0922C122.235 78.5588 121.464 78.7922 120.609 78.7922ZM118.798 73.4755H122.429C122.355 73.1977 122.229 72.9477 122.053 72.7255C121.876 72.5033 121.663 72.3283 121.412 72.2005C121.167 72.0727 120.9 72.0088 120.609 72.0088C120.325 72.0088 120.057 72.0727 119.806 72.2005C119.562 72.3283 119.351 72.5033 119.174 72.7255C119.003 72.9422 118.878 73.1922 118.798 73.4755Z" fill="white"/>
<path d="M129.071 78.7255C128.633 78.6922 128.211 78.6033 127.807 78.4588C127.403 78.3088 127.041 78.1088 126.722 77.8588C126.409 77.6033 126.164 77.2977 125.987 76.9422L127.969 76.1088C128.032 76.1977 128.126 76.2949 128.251 76.4005C128.376 76.5005 128.527 76.5894 128.704 76.6672C128.886 76.7449 129.097 76.7838 129.336 76.7838C129.512 76.7838 129.683 76.7644 129.848 76.7255C130.014 76.681 130.147 76.6116 130.25 76.5172C130.352 76.4172 130.404 76.2866 130.404 76.1255C130.404 75.9477 130.338 75.8116 130.207 75.7172C130.076 75.6227 129.917 75.5533 129.729 75.5088C129.547 75.4588 129.37 75.4172 129.199 75.3838C128.675 75.2949 128.18 75.1366 127.713 74.9088C127.252 74.6755 126.876 74.3755 126.585 74.0088C126.295 73.6422 126.15 73.2033 126.15 72.6922C126.15 72.131 126.301 71.6477 126.602 71.2422C126.904 70.831 127.297 70.5144 127.781 70.2922C128.265 70.0699 128.789 69.9588 129.353 69.9588C130.019 69.9588 130.637 70.0949 131.207 70.3672C131.776 70.6394 132.234 71.0227 132.582 71.5172L130.72 72.5922C130.646 72.4866 130.549 72.3866 130.429 72.2922C130.315 72.1922 130.182 72.1088 130.028 72.0422C129.88 71.9699 129.72 71.9283 129.549 71.9172C129.327 71.9005 129.125 71.9144 128.943 71.9588C128.761 71.9977 128.616 72.0727 128.507 72.1838C128.405 72.2949 128.354 72.4449 128.354 72.6338C128.354 72.8172 128.436 72.9533 128.601 73.0422C128.766 73.1255 128.957 73.1894 129.174 73.2338C129.39 73.2727 129.581 73.3199 129.746 73.3755C130.241 73.531 130.705 73.731 131.138 73.9755C131.577 74.2144 131.93 74.5088 132.197 74.8588C132.465 75.2088 132.59 75.6199 132.573 76.0922C132.573 76.6422 132.405 77.1255 132.069 77.5422C131.733 77.9533 131.298 78.2672 130.762 78.4838C130.233 78.6949 129.669 78.7755 129.071 78.7255Z" fill="white"/>
<path d="M138.182 78.8088C137.356 78.8088 136.601 78.6116 135.918 78.2172C135.24 77.8227 134.699 77.2922 134.295 76.6255C133.891 75.9588 133.689 75.2199 133.689 74.4088C133.689 73.8033 133.805 73.2366 134.039 72.7088C134.272 72.181 134.594 71.7172 135.004 71.3172C135.42 70.9116 135.898 70.5949 136.439 70.3672C136.98 70.1394 137.561 70.0255 138.182 70.0255C138.677 70.0255 139.116 70.131 139.497 70.3422C139.879 70.5477 140.203 70.8144 140.471 71.1422V70.2422H142.828V82.7422H140.471V77.6922C140.203 78.0144 139.879 78.281 139.497 78.4922C139.116 78.7033 138.677 78.8088 138.182 78.8088ZM138.216 72.2338C137.823 72.2338 137.467 72.3338 137.148 72.5338C136.829 72.7283 136.576 72.9922 136.388 73.3255C136.2 73.6533 136.106 74.0144 136.106 74.4088C136.106 74.8144 136.2 75.181 136.388 75.5088C136.576 75.8366 136.829 76.0977 137.148 76.2922C137.467 76.4866 137.823 76.5838 138.216 76.5838C138.603 76.5838 138.95 76.4866 139.258 76.2922C139.571 76.0977 139.816 75.8366 139.993 75.5088C140.175 75.1755 140.266 74.8088 140.266 74.4088C140.266 74.0088 140.175 73.6449 139.993 73.3172C139.816 72.9894 139.571 72.7283 139.258 72.5338C138.95 72.3338 138.603 72.2338 138.216 72.2338Z" fill="white"/>
<path d="M144.562 75.5255V70.2422H146.919V74.8922C146.919 75.1866 146.99 75.4533 147.133 75.6922C147.281 75.9255 147.477 76.1116 147.722 76.2505C147.967 76.3894 148.235 76.4588 148.525 76.4588C148.821 76.4588 149.092 76.3894 149.337 76.2505C149.581 76.1116 149.775 75.9255 149.917 75.6922C150.06 75.4533 150.131 75.1866 150.131 74.8922V70.2422H152.488L152.497 78.5755H150.139L150.131 77.9422C149.846 78.2088 149.51 78.4172 149.123 78.5672C148.741 78.7172 148.337 78.7922 147.91 78.7922C147.295 78.7922 146.734 78.6449 146.227 78.3505C145.72 78.056 145.316 77.6644 145.014 77.1755C144.712 76.681 144.562 76.131 144.562 75.5255Z" fill="white"/>
<path d="M160.657 70.2422H163.015V78.5755H160.649L160.538 77.7088C160.316 78.031 160.031 78.2922 159.684 78.4922C159.336 78.6922 158.929 78.7922 158.462 78.7922C157.824 78.7922 157.229 78.6755 156.677 78.4422C156.124 78.2088 155.637 77.8866 155.216 77.4755C154.795 77.0644 154.464 76.5894 154.225 76.0505C153.992 75.506 153.875 74.9227 153.875 74.3005C153.875 73.706 153.986 73.1505 154.208 72.6338C154.43 72.1172 154.743 71.6616 155.148 71.2672C155.552 70.8727 156.016 70.5644 156.54 70.3422C157.07 70.1199 157.639 70.0088 158.248 70.0088C158.772 70.0088 159.242 70.1172 159.658 70.3338C160.079 70.5505 160.447 70.8255 160.76 71.1588L160.657 70.2422ZM158.402 76.5838C158.789 76.5838 159.14 76.4866 159.453 76.2922C159.766 76.0977 160.014 75.8366 160.196 75.5088C160.378 75.1755 160.469 74.8088 160.469 74.4088C160.469 74.0033 160.378 73.6366 160.196 73.3088C160.014 72.981 159.766 72.7199 159.453 72.5255C159.14 72.331 158.789 72.2338 158.402 72.2338C158.009 72.2338 157.653 72.331 157.334 72.5255C157.016 72.7199 156.762 72.9838 156.574 73.3172C156.386 73.6449 156.292 74.0088 156.292 74.4088C156.292 74.8088 156.386 75.1755 156.574 75.5088C156.768 75.8366 157.024 76.0977 157.343 76.2922C157.662 76.4866 158.015 76.5838 158.402 76.5838Z" fill="white"/>
<path d="M165.081 78.5755L165.073 70.2422H167.431L167.439 70.8588C167.724 70.5922 168.057 70.3838 168.438 70.2338C168.826 70.0838 169.233 70.0088 169.66 70.0088C169.973 70.0088 170.286 70.0533 170.6 70.1422L169.669 72.4672C169.464 72.3838 169.256 72.3422 169.045 72.3422C168.749 72.3422 168.478 72.4116 168.233 72.5505C167.989 72.6894 167.795 72.8783 167.653 73.1172C167.51 73.3505 167.439 73.6144 167.439 73.9088V78.5755H165.081Z" fill="white"/>
<path d="M175.229 78.7922C174.443 78.7922 173.726 78.5949 173.077 78.2005C172.433 77.806 171.918 77.2755 171.531 76.6088C171.149 75.9422 170.958 75.206 170.958 74.4005C170.958 73.7949 171.069 73.2283 171.291 72.7005C171.513 72.1672 171.818 71.7005 172.205 71.3005C172.598 70.8949 173.054 70.5783 173.572 70.3505C174.09 70.1227 174.643 70.0088 175.229 70.0088C175.907 70.0088 176.525 70.1505 177.083 70.4338C177.647 70.7172 178.122 71.1033 178.509 71.5922C178.902 72.081 179.181 72.6338 179.346 73.2505C179.517 73.8672 179.546 74.5088 179.432 75.1755H173.504C173.578 75.4199 173.692 75.6422 173.845 75.8422C174.005 76.0366 174.198 76.1922 174.426 76.3088C174.66 76.4255 174.927 76.4866 175.229 76.4922C175.525 76.4977 175.799 76.431 176.049 76.2922C176.3 76.1533 176.513 75.9672 176.69 75.7338L179.099 76.2755C178.751 77.0144 178.233 77.6199 177.544 78.0922C176.855 78.5588 176.083 78.7922 175.229 78.7922ZM173.418 73.4755H177.049C176.975 73.1977 176.849 72.9477 176.673 72.7255C176.496 72.5033 176.283 72.3283 176.032 72.2005C175.787 72.0727 175.52 72.0088 175.229 72.0088C174.944 72.0088 174.677 72.0727 174.426 72.2005C174.181 72.3283 173.971 72.5033 173.794 72.7255C173.623 72.9422 173.498 73.1922 173.418 73.4755Z" fill="white"/>
<defs>
<linearGradient id="paint0_linear_1128_10624" x1="5.21696" y1="8.81879" x2="47.5894" y2="38.7756" gradientUnits="userSpaceOnUse">
<stop stop-color="#80FFD9"/>
<stop offset="0.978741" stop-color="#01476E"/>
</linearGradient>
<radialGradient id="paint1_radial_1128_10624" cx="0" cy="0" r="1" gradientUnits="userSpaceOnUse" gradientTransform="translate(67.2022 79.8621) rotate(-143.095) scale(21.7973 21.6536)">
<stop offset="0.142317" stop-color="#9877FF"/>
<stop offset="0.53125" stop-color="#A858FF"/>
</radialGradient>
<clipPath id="clip0_1128_10624">
<rect width="24.6009" height="24" fill="white" transform="translate(47.5 61.1836)"/>
</clipPath>
</defs>
</svg>
