<svg width="20" height="19" viewBox="0 0 20 19" fill="none" xmlns="http://www.w3.org/2000/svg">
<path d="M9.99935 13.1667C9.99935 15.4679 11.8648 17.3333 14.166 17.3333C16.4672 17.3333 18.3327 15.4679 18.3327 13.1667C18.3327 10.8655 16.4672 9 14.166 9C11.8648 9 9.99935 10.8655 9.99935 13.1667ZM9.99935 13.1667C9.99935 12.2285 10.3094 11.3627 10.8327 10.6663V3.16667M9.99935 13.1667C9.99935 13.8545 10.166 14.5033 10.4611 15.0751C9.75907 15.6681 8.13755 16.0833 6.24935 16.0833C3.71804 16.0833 1.66602 15.3371 1.66602 14.4167V3.16667M10.8327 3.16667C10.8327 4.08714 8.78065 4.83333 6.24935 4.83333C3.71804 4.83333 1.66602 4.08714 1.66602 3.16667M10.8327 3.16667C10.8327 2.24619 8.78065 1.5 6.24935 1.5C3.71804 1.5 1.66602 2.24619 1.66602 3.16667M1.66602 10.6667C1.66602 11.5871 3.71804 12.3333 6.24935 12.3333C8.07352 12.3333 9.64878 11.9458 10.3865 11.3848M10.8327 6.91667C10.8327 7.83714 8.78065 8.58333 6.24935 8.58333C3.71804 8.58333 1.66602 7.83714 1.66602 6.91667" stroke="#6230EC" stroke-width="2" stroke-linecap="round" stroke-linejoin="round"/>
</svg>
