<svg width="16" height="16" viewBox="0 0 16 16" fill="none" xmlns="http://www.w3.org/2000/svg">
<path fill-rule="evenodd" clip-rule="evenodd" d="M7.77035 1.94592C7.69959 1.9752 7.63329 2.0186 7.57577 2.07612C7.57571 2.07617 7.57566 2.07623 7.5756 2.07629L3.07576 6.57613C2.84145 6.81044 2.84145 7.19034 3.07576 7.42465C3.31007 7.65897 3.68997 7.65897 3.92429 7.42465L7.40002 3.94892V13.5004C7.40002 13.8318 7.66865 14.1004 8.00002 14.1004C8.3314 14.1004 8.60002 13.8318 8.60002 13.5004V3.94892L12.0758 7.42465C12.3101 7.65897 12.69 7.65897 12.9243 7.42465C13.1586 7.19034 13.1586 6.81044 12.9243 6.57613L8.42445 2.07629L8.42429 2.07613C8.30713 1.95897 8.15358 1.90039 8.00002 1.90039C7.91867 1.90039 7.8411 1.91658 7.77035 1.94592Z" fill="white"/>
</svg>
