<svg width="40" height="40" viewBox="0 0 40 40" fill="none" xmlns="http://www.w3.org/2000/svg">
<path d="M10.0002 16.6663V23.333M30.0002 16.6663V23.333M3.3335 13.6663L3.3335 26.333C3.3335 28.1998 3.3335 29.1333 3.69681 29.8463C4.01639 30.4735 4.52632 30.9834 5.15353 31.303C5.86657 31.6663 6.79999 31.6663 8.66683 31.6663L31.3335 31.6663C33.2003 31.6663 34.1338 31.6663 34.8468 31.303C35.474 30.9835 35.9839 30.4735 36.3035 29.8463C36.6668 29.1333 36.6668 28.1999 36.6668 26.333V13.6663C36.6668 11.7995 36.6668 10.8661 36.3035 10.153C35.9839 9.52583 35.474 9.0159 34.8468 8.69632C34.1338 8.33301 33.2003 8.33301 31.3335 8.33301L8.66683 8.33301C6.79999 8.33301 5.86657 8.33301 5.15353 8.69632C4.52632 9.0159 4.01639 9.52583 3.69681 10.153C3.3335 10.8661 3.3335 11.7995 3.3335 13.6663ZM24.1668 19.9997C24.1668 22.3009 22.3014 24.1663 20.0002 24.1663C17.699 24.1663 15.8335 22.3009 15.8335 19.9997C15.8335 17.6985 17.699 15.833 20.0002 15.833C22.3014 15.833 24.1668 17.6985 24.1668 19.9997Z" stroke="#101010" stroke-width="2" stroke-linecap="round" stroke-linejoin="round"/>
</svg>
