<svg width="20" height="20" viewBox="0 0 20 20" fill="none" xmlns="http://www.w3.org/2000/svg">
<g id="Emoji">
<path id="vector" fill-rule="evenodd" clip-rule="evenodd" d="M3.86358 10C3.86358 6.61098 6.61092 3.86364 9.99994 3.86364C13.389 3.86364 16.1363 6.61098 16.1363 10C16.1363 13.389 13.389 16.1364 9.99994 16.1364C6.61092 16.1364 3.86358 13.389 3.86358 10ZM9.99994 2.5C5.8578 2.5 2.49994 5.85786 2.49994 10C2.49994 14.1421 5.8578 17.5 9.99994 17.5C14.1421 17.5 17.4999 14.1421 17.4999 10C17.4999 5.85786 14.1421 2.5 9.99994 2.5ZM8.29529 8.57959C8.29529 9.05029 7.91371 9.43186 7.44302 9.43186C6.97232 9.43186 6.59074 9.05029 6.59074 8.57959C6.59074 8.10889 6.97232 7.72732 7.44302 7.72732C7.91371 7.72732 8.29529 8.10889 8.29529 8.57959ZM12.5567 9.43186C13.0274 9.43186 13.409 9.05029 13.409 8.57959C13.409 8.10889 13.0274 7.72732 12.5567 7.72732C12.086 7.72732 11.7044 8.10889 11.7044 8.57959C11.7044 9.05029 12.086 9.43186 12.5567 9.43186ZM7.63508 11.3623C7.44604 11.0366 7.02879 10.9259 6.70312 11.1149C6.37745 11.3039 6.26668 11.7212 6.45571 12.0469C6.81602 12.6676 7.33305 13.1828 7.95505 13.541C8.57704 13.8991 9.2822 14.0876 9.99994 14.0876C10.7177 14.0876 11.4228 13.8991 12.0448 13.541C12.6668 13.1828 13.1839 12.6676 13.5442 12.0469C13.7332 11.7212 13.6224 11.3039 13.2968 11.1149C12.9711 10.9259 12.5538 11.0366 12.3648 11.3623C12.1244 11.7765 11.7794 12.1203 11.3644 12.3592C10.9494 12.5982 10.4788 12.724 9.99994 12.724C9.52103 12.724 9.05052 12.5982 8.6355 12.3592C8.22047 12.1203 7.87549 11.7765 7.63508 11.3623Z" fill="#D9D9D9"/>
</g>
</svg>
