<svg width="20" height="20" viewBox="0 0 20 20" fill="none" xmlns="http://www.w3.org/2000/svg">
<g id="Link">
<path id="Vector" fill-rule="evenodd" clip-rule="evenodd" d="M13.5361 3.77539C13.8891 3.77531 14.2387 3.84478 14.5649 3.97984C14.891 4.11491 15.1874 4.31291 15.437 4.56254C15.6867 4.81217 15.8847 5.10854 16.0197 5.43472C16.1548 5.76089 16.2243 6.11048 16.2242 6.46352C16.2241 6.81655 16.1545 7.16611 16.0193 7.49222C15.884 7.81833 15.6857 8.11485 15.4359 8.36437L13.2262 10.5741C12.9766 10.8236 12.6804 11.0216 12.3543 11.1567C12.0282 11.2917 11.6788 11.3612 11.3259 11.3612C10.9729 11.3612 10.6235 11.2917 10.2974 11.1567C9.97133 11.0216 9.67506 10.8236 9.4255 10.5741C9.13261 10.2812 8.65774 10.2812 8.36484 10.5741C8.07195 10.867 8.07195 11.3418 8.36484 11.6347C8.75369 12.0236 9.21531 12.332 9.72336 12.5425C10.2314 12.7529 10.7759 12.8612 11.3259 12.8612C11.8758 12.8612 12.4203 12.7529 12.9283 12.5425C13.4364 12.332 13.898 12.0236 14.2869 11.6347L16.4966 9.42503C16.8856 9.0363 17.1942 8.57475 17.4049 8.06673C17.6156 7.5586 17.7241 7.01394 17.7242 6.46386C17.7243 5.91379 17.6161 5.36908 17.4056 4.86085C17.1952 4.35263 16.8867 3.89084 16.4977 3.50188C16.1087 3.11292 15.647 2.8044 15.1387 2.59396C14.6305 2.38351 14.0858 2.27526 13.5357 2.27539C12.9856 2.27552 12.441 2.38402 11.9329 2.59471C11.4248 2.80534 10.963 3.11423 10.5743 3.50326L9.02775 5.04981C8.73486 5.3427 8.73486 5.81758 9.02775 6.11047C9.32065 6.40336 9.79552 6.40336 10.0884 6.11047L11.6355 4.56343C11.885 4.31368 12.1813 4.11554 12.5074 3.98032C12.8335 3.84511 13.183 3.77547 13.5361 3.77539ZM7.64576 8.84245C7.97182 8.7074 8.32129 8.63788 8.67422 8.63788C9.02715 8.63788 9.37662 8.7074 9.70268 8.84245C10.0287 8.97751 10.325 9.17547 10.5746 9.42503C10.8675 9.71792 11.3423 9.71792 11.6352 9.42503C11.9281 9.13214 11.9281 8.65726 11.6352 8.36437C11.2464 7.97553 10.7848 7.66708 10.2767 7.45663C9.76866 7.24619 9.22413 7.13788 8.67422 7.13788C8.12431 7.13788 7.57978 7.24619 7.07173 7.45663C6.56368 7.66708 6.10206 7.97553 5.71321 8.36437L3.5035 10.5741C3.11448 10.9628 2.80583 11.4244 2.59519 11.9324C2.38451 12.4405 2.27601 12.9852 2.27588 13.5352C2.27575 14.0853 2.384 14.63 2.59445 15.1383C2.80489 15.6465 3.11341 16.1083 3.50237 16.4972C3.89133 16.8862 4.35312 17.1947 4.86134 17.4052C5.36957 17.6156 5.91428 17.7239 6.46435 17.7237C7.01443 17.7236 7.55909 17.6151 8.06722 17.4044C8.57524 17.1938 9.03704 16.8849 9.42577 16.4959L10.9723 14.9493C11.2652 14.6564 11.2652 14.1815 10.9723 13.8886C10.6794 13.5957 10.2045 13.5957 9.91166 13.8886L8.36461 15.4357C8.1151 15.6854 7.81882 15.8836 7.49271 16.0188C7.16659 16.154 6.81704 16.2236 6.464 16.2237C6.11097 16.2238 5.76138 16.1543 5.43521 16.0193C5.10903 15.8842 4.81266 15.6862 4.56303 15.4366C4.3134 15.1869 4.1154 14.8906 3.98033 14.5644C3.84527 14.2382 3.7758 13.8886 3.77588 13.5356C3.77596 13.1826 3.8456 12.833 3.98081 12.5069C4.11603 12.1808 4.31441 11.8843 4.56416 11.6347L6.77387 9.42503C7.02343 9.17547 7.31969 8.97751 7.64576 8.84245Z" fill="#C7C7C6"/>
</g>
</svg>
