<svg width="20" height="20" viewBox="0 0 20 20" fill="none" xmlns="http://www.w3.org/2000/svg">
<g id="Text Editor / ListBullets">
<path id="Vector" fill-rule="evenodd" clip-rule="evenodd" d="M3.4375 5.9375C3.95527 5.9375 4.375 5.51777 4.375 5C4.375 4.48223 3.95527 4.0625 3.4375 4.0625C2.91973 4.0625 2.5 4.48223 2.5 5C2.5 5.51777 2.91973 5.9375 3.4375 5.9375ZM6.12503 5C6.12503 4.58579 6.46082 4.25 6.87503 4.25H16.875C17.2892 4.25 17.625 4.58579 17.625 5C17.625 5.41422 17.2892 5.75 16.875 5.75H6.87503C6.46082 5.75 6.12503 5.41422 6.12503 5ZM6.12503 10C6.12503 9.58579 6.46082 9.25 6.87503 9.25H16.875C17.2892 9.25 17.625 9.58579 17.625 10C17.625 10.4142 17.2892 10.75 16.875 10.75H6.87503C6.46082 10.75 6.12503 10.4142 6.12503 10ZM6.87503 14.25C6.46082 14.25 6.12503 14.5858 6.12503 15C6.12503 15.4142 6.46082 15.75 6.87503 15.75H16.875C17.2892 15.75 17.625 15.4142 17.625 15C17.625 14.5858 17.2892 14.25 16.875 14.25H6.87503ZM3.4375 10.9375C3.95527 10.9375 4.375 10.5178 4.375 10C4.375 9.48223 3.95527 9.0625 3.4375 9.0625C2.91973 9.0625 2.5 9.48223 2.5 10C2.5 10.5178 2.91973 10.9375 3.4375 10.9375ZM3.4375 15.9375C3.95527 15.9375 4.375 15.5178 4.375 15C4.375 14.4822 3.95527 14.0625 3.4375 14.0625C2.91973 14.0625 2.5 14.4822 2.5 15C2.5 15.5178 2.91973 15.9375 3.4375 15.9375Z" fill="#C7C7C7"/>
</g>
</svg>
