<svg width="20" height="20" viewBox="0 0 20 20" fill="none" xmlns="http://www.w3.org/2000/svg">
<g id="Text Editor / ListNumbers">
<path id="Vector" fill-rule="evenodd" clip-rule="evenodd" d="M4.76934 3.42451C4.99045 3.56117 5.12504 3.80257 5.12504 4.0625V8.4375C5.12504 8.85171 4.78926 9.1875 4.37504 9.1875C3.96083 9.1875 3.62504 8.85171 3.62504 8.4375V5.27603L3.46045 5.35832C3.08997 5.54356 2.63946 5.39339 2.45422 5.02291C2.26898 4.65243 2.41915 4.20192 2.78963 4.01668L4.03963 3.39168C4.27212 3.27543 4.54823 3.28786 4.76934 3.42451ZM7.37503 5C7.37503 4.58579 7.71082 4.25 8.12503 4.25H16.875C17.2892 4.25 17.625 4.58579 17.625 5C17.625 5.41422 17.2892 5.75 16.875 5.75H8.12503C7.71082 5.75 7.37503 5.41422 7.37503 5ZM7.37503 10C7.37503 9.58579 7.71082 9.25 8.12503 9.25H16.875C17.2892 9.25 17.625 9.58579 17.625 10C17.625 10.4142 17.2892 10.75 16.875 10.75H8.12503C7.71082 10.75 7.37503 10.4142 7.37503 10ZM8.12503 14.25C7.71082 14.25 7.37503 14.5858 7.37503 15C7.37503 15.4142 7.71082 15.75 8.12503 15.75H16.875C17.2892 15.75 17.625 15.4142 17.625 15C17.625 14.5858 17.2892 14.25 16.875 14.25H8.12503ZM4.10843 12.0081C4.1539 11.9917 4.20232 11.9851 4.25052 11.9886C4.29872 11.9922 4.34563 12.0059 4.38819 12.0288C4.43074 12.0518 4.46798 12.0834 4.49747 12.1217C4.52697 12.16 4.54806 12.2041 4.55936 12.2511C4.57066 12.2981 4.57193 12.3469 4.56307 12.3944C4.55484 12.4386 4.53804 12.4807 4.51366 12.5183L2.52461 15.1756C2.35445 15.4029 2.32727 15.7068 2.45437 15.9607C2.58148 16.2146 2.84108 16.375 3.12503 16.375H5.31254C5.72675 16.375 6.06254 16.0392 6.06254 15.625C6.06254 15.2108 5.72675 14.875 5.31254 14.875H4.62328L5.72546 13.4026C5.73115 13.395 5.7367 13.3872 5.74211 13.3794C5.88946 13.1661 5.99018 12.9241 6.03768 12.6693C6.08518 12.4144 6.0784 12.1524 6.01777 11.9003C5.95714 11.6482 5.84404 11.4118 5.68584 11.2064C5.52764 11.001 5.3279 10.8313 5.09966 10.7083C4.87142 10.5853 4.61981 10.5119 4.36126 10.4927C4.10271 10.4736 3.84303 10.5092 3.59917 10.5972C3.35531 10.6852 3.13276 10.8237 2.94604 11.0036C2.75932 11.1834 2.61263 11.4006 2.51554 11.641C2.36043 12.0251 2.54605 12.4622 2.93012 12.6173C3.3142 12.7724 3.75129 12.5868 3.9064 12.2027C3.9245 12.1579 3.95185 12.1174 3.98666 12.0839C4.02148 12.0503 4.06297 12.0245 4.10843 12.0081Z" fill="#C7C7C7"/>
</g>
</svg>
