<svg width="20" height="20" viewBox="0 0 20 20" fill="none" xmlns="http://www.w3.org/2000/svg">
<path fill-rule="evenodd" clip-rule="evenodd" d="M10 3.86364C6.61098 3.86364 3.86364 6.61098 3.86364 10C3.86364 13.389 6.61098 16.1364 10 16.1364C13.389 16.1364 16.1364 13.389 16.1364 10C16.1364 6.61098 13.389 3.86364 10 3.86364ZM2.5 10C2.5 5.85786 5.85786 2.5 10 2.5C14.1421 2.5 17.5 5.85786 17.5 10C17.5 14.1421 14.1421 17.5 10 17.5C5.85786 17.5 2.5 14.1421 2.5 10ZM6.47728 10C6.47728 9.62344 6.78254 9.31818 7.1591 9.31818H9.31818V7.15909C9.31818 6.78253 9.62344 6.47727 10 6.47727C10.3766 6.47727 10.6818 6.78253 10.6818 7.15909V9.31818H12.8409C13.2175 9.31818 13.5227 9.62344 13.5227 10C13.5227 10.3766 13.2175 10.6818 12.8409 10.6818H10.6818V12.8409C10.6818 13.2175 10.3766 13.5227 10 13.5227C9.62344 13.5227 9.31818 13.2175 9.31818 12.8409V10.6818H7.1591C6.78254 10.6818 6.47728 10.3766 6.47728 10Z" fill="#D9D9D9"/>
</svg>
