<svg width="20" height="20" viewBox="0 0 20 20" fill="none" xmlns="http://www.w3.org/2000/svg">
<path fill-rule="evenodd" clip-rule="evenodd" d="M11.0406 2.5H1.77414C1.43622 2.5 1.11213 2.67922 0.873187 2.99822C0.634239 3.31723 0.5 3.74989 0.5 4.20103V13.4794C0.5 14.5457 0.817293 15.5684 1.38208 16.3224C1.94686 17.0764 2.71287 17.5 3.5116 17.5H12.7781C13.116 17.5 13.4401 17.3208 13.679 17.0018C13.918 16.6828 14.0522 16.2501 14.0522 15.799V12.6289L18.3632 15.0923C18.6328 15.2464 18.9641 15.2452 19.2327 15.0894C19.5013 14.9335 19.6666 14.6464 19.6666 14.3358V5.62371C19.6666 5.31315 19.5013 5.02607 19.2327 4.87019C18.9641 4.71431 18.6328 4.7132 18.3632 4.86729L14.0522 7.33071V6.52062C14.0522 5.45428 13.7349 4.43162 13.1701 3.67761C12.6053 2.9236 11.8393 2.5 11.0406 2.5ZM14.0522 9.33047V10.6291C14.0838 10.6425 14.115 10.6579 14.1456 10.6754L17.9242 12.8346V7.12497L14.1456 9.28418C14.115 9.30165 14.0838 9.31706 14.0522 9.33047ZM11.0406 4.35567H1.88997V13.4794C1.88997 14.0536 2.06082 14.6042 2.36493 15.0102C2.66905 15.4162 3.08152 15.6443 3.5116 15.6443H12.6622V6.52062C12.6622 5.94644 12.4914 5.39578 12.1873 4.98977C11.8832 4.58376 11.4707 4.35567 11.0406 4.35567Z" fill="#D9D9D9"/>
</svg>
