<svg width="20" height="20" viewBox="0 0 20 20" fill="none" xmlns="http://www.w3.org/2000/svg">
<g id="Text Editor / TextItalic">
<path id="Vector" fill-rule="evenodd" clip-rule="evenodd" d="M10.8343 5.1252L7.58433 14.8752H5C4.58579 14.8752 4.25 15.211 4.25 15.6252C4.25 16.0394 4.58579 16.3752 5 16.3752H8.10767C8.11926 16.3755 8.13081 16.3755 8.14234 16.3752H11.25C11.6642 16.3752 12 16.0394 12 15.6252C12 15.211 11.6642 14.8752 11.25 14.8752H9.16547L12.4155 5.1252H15C15.4142 5.1252 15.75 4.78942 15.75 4.3752C15.75 3.96099 15.4142 3.6252 15 3.6252H11.8922C11.8806 3.62493 11.869 3.62493 11.8574 3.6252H8.75C8.33579 3.6252 8 3.96099 8 4.3752C8 4.78942 8.33579 5.1252 8.75 5.1252H10.8343Z" fill="#C7C7C7"/>
</g>
</svg>
