<svg width="35" height="36" viewBox="0 0 35 36" fill="none" xmlns="http://www.w3.org/2000/svg">
<rect y="0.912598" width="34.1747" height="34.1747" rx="17.0873" fill="#6230EC"/>
<path d="M15.7476 8.79682C15.7476 8.57934 15.5543 8.4118 15.3411 8.45457C12.3039 9.06389 10.0348 11.4868 10.0348 14.383C10.0348 17.2792 12.3039 19.7021 15.3411 20.3114C15.5543 20.3542 15.7476 20.1866 15.7476 19.9691L15.7476 8.79682Z" fill="#D3EC30"/>
<path fill-rule="evenodd" clip-rule="evenodd" d="M21.1325 8.3848C21.1478 8.38456 21.1632 8.38444 21.1787 8.38444C22.7562 8.38444 24.035 9.66327 24.035 11.2408C24.035 12.8183 22.7562 14.0972 21.1787 14.0972C19.9798 14.0972 18.9534 13.3585 18.5297 12.3115C18.1556 11.8714 17.8446 11.6929 17.1831 11.4763C16.9617 11.4038 16.7419 11.3124 16.6945 11.2732C16.6472 11.2341 16.6085 11.1936 16.6085 11.1834C16.6085 11.049 16.7638 10.9453 17.166 10.8111C17.8813 10.5725 18.276 10.3224 18.5824 9.9136C18.7254 9.72288 18.8551 9.56023 18.978 9.4197C19.0644 9.31538 19.1581 9.21731 19.2583 9.12626C19.4754 8.9216 19.6859 8.77812 19.9316 8.65699C20.3221 8.46445 20.7315 8.37862 21.1325 8.3848Z" fill="#D3EC30"/>
<path d="M18.3221 27.2051C18.3221 27.4226 18.5154 27.5902 18.7286 27.5474C21.7658 26.9381 24.0349 24.5151 24.0349 21.619C24.0349 18.7228 21.7658 16.2999 18.7286 15.6906C18.5154 15.6478 18.3221 15.8153 18.3221 16.0328L18.3221 27.2051Z" fill="#D3EC30"/>
<path fill-rule="evenodd" clip-rule="evenodd" d="M12.9365 27.6169C12.9214 27.6172 12.9063 27.6173 12.8912 27.6173C11.3136 27.6173 10.0348 26.3384 10.0348 24.7609C10.0348 23.1834 11.3136 21.9045 12.8912 21.9045C14.0901 21.9045 15.1165 22.6432 15.5401 23.6902C15.9142 24.1304 16.2253 24.3088 16.8868 24.5255C17.1081 24.5979 17.328 24.6893 17.3753 24.7285C17.4226 24.7677 17.4614 24.8081 17.4614 24.8184C17.4614 24.9527 17.306 25.0565 16.9038 25.1907C16.1886 25.4292 15.7939 25.6794 15.4874 26.0881C15.3441 26.2793 15.2141 26.4423 15.091 26.583C15.0052 26.6865 14.9123 26.7838 14.8129 26.8741C14.5954 27.0795 14.3845 27.2234 14.1383 27.3447C13.7475 27.5374 13.3377 27.6232 12.9365 27.6169Z" fill="#D3EC30"/>
</svg>
