<svg width="45" height="44" viewBox="0 0 45 44" fill="none" xmlns="http://www.w3.org/2000/svg">
<path d="M22.5 40.3332C32.6252 40.3332 40.8333 32.1251 40.8333 21.9998C40.8333 11.8746 32.6252 3.6665 22.5 3.6665C12.3748 3.6665 4.16666 11.8746 4.16666 21.9998C4.16666 32.1251 12.3748 40.3332 22.5 40.3332Z" fill="#6230EC"/>
<path d="M17.9167 16.4363C17.9167 15.5613 17.9167 15.1237 18.0995 14.8795C18.2589 14.6666 18.5028 14.5335 18.768 14.5145C19.0724 14.4928 19.4404 14.7294 20.1764 15.2026L28.8309 20.7661C29.4696 21.1767 29.7889 21.382 29.8992 21.6431C29.9956 21.8711 29.9956 22.1285 29.8992 22.3566C29.7889 22.6177 29.4696 22.823 28.8309 23.2336L20.1764 28.7971C19.4404 29.2703 19.0724 29.5069 18.768 29.4851C18.5028 29.4662 18.2589 29.333 18.0995 29.1202C17.9167 28.8759 17.9167 28.4384 17.9167 27.5634V16.4363Z" fill="white"/>
</svg>
